<svg width="1400" height="900" viewBox="0 0 1400 900" xmlns="http://www.w3.org/2000/svg">
  <defs>
    <linearGradient id="bg" x1="0" y1="0" x2="1" y2="1">
      <stop offset="0" stop-color="#0ea5e9"/>
      <stop offset="0.45" stop-color="#1d4ed8"/>
      <stop offset="1" stop-color="#0f172a"/>
    </linearGradient>
    <radialGradient id="glow" cx="0.72" cy="0.2" r="0.45">
      <stop offset="0" stop-color="#22d3ee" stop-opacity="0.85"/>
      <stop offset="1" stop-color="#22d3ee" stop-opacity="0"/>
    </radialGradient>
    <linearGradient id="courtStroke" x1="0" y1="0" x2="0" y2="1">
      <stop offset="0" stop-color="#e2e8f0" stop-opacity="0.8"/>
      <stop offset="1" stop-color="#e2e8f0" stop-opacity="0.45"/>
    </linearGradient>
  </defs>

  <rect width="1400" height="900" fill="url(#bg)"/>
  <rect width="1400" height="900" fill="url(#glow)"/>

  <g opacity="0.18">
    <circle cx="118" cy="124" r="100" fill="#a5f3fc"/>
    <circle cx="1270" cy="94" r="82" fill="#a5f3fc"/>
    <circle cx="1295" cy="760" r="130" fill="#818cf8"/>
  </g>

  <g transform="translate(120 70)">
    <rect x="0" y="0" width="1160" height="690" rx="54" fill="none" stroke="url(#courtStroke)" stroke-width="9"/>
    <line x1="580" y1="0" x2="580" y2="690" stroke="#e2e8f0" stroke-opacity="0.5" stroke-width="7"/>
    <line x1="0" y1="345" x2="1160" y2="345" stroke="#f0abfc" stroke-opacity="0.6" stroke-width="8"/>

    <rect x="168" y="122" width="824" height="446" rx="36" fill="none" stroke="#cbd5e1" stroke-opacity="0.4" stroke-width="6"/>

    <line x1="168" y1="122" x2="168" y2="568" stroke="#cbd5e1" stroke-opacity="0.25" stroke-width="4"/>
    <line x1="992" y1="122" x2="992" y2="568" stroke="#cbd5e1" stroke-opacity="0.25" stroke-width="4"/>

    <g transform="translate(968 126)">
      <circle cx="66" cy="26" r="10" fill="#f8fafc" fill-opacity="0.72"/>
      <path d="M66 34 Q124 90 90 146" stroke="#f8fafc" stroke-opacity="0.72" stroke-width="10" fill="none" stroke-linecap="round"/>
    </g>
  </g>

  <g opacity="0.26">
    <path d="M210 780 C450 642 880 636 1178 742" stroke="#22d3ee" stroke-width="18" fill="none" stroke-linecap="round"/>
    <path d="M190 820 C450 692 900 690 1210 796" stroke="#60a5fa" stroke-width="13" fill="none" stroke-linecap="round"/>
  </g>

  <text x="178" y="158" fill="#e2e8f0" fill-opacity="0.9" font-size="54" font-family="Plus Jakarta Sans, Arial, sans-serif" font-weight="700">COURT PREVIEW</text>
</svg>
