<svg width="1600" height="720" viewBox="0 0 1600 720" xmlns="http://www.w3.org/2000/svg">
  <defs>
    <linearGradient id="bgWide" x1="0" y1="0" x2="1" y2="1">
      <stop offset="0" stop-color="#1194d8"/>
      <stop offset="0.34" stop-color="#1d4ed8"/>
      <stop offset="0.7" stop-color="#17306d"/>
      <stop offset="1" stop-color="#091226"/>
    </linearGradient>
    <radialGradient id="glowLeft" cx="0.08" cy="0.18" r="0.28">
      <stop offset="0" stop-color="#7dd3fc" stop-opacity="0.45"/>
      <stop offset="1" stop-color="#7dd3fc" stop-opacity="0"/>
    </radialGradient>
    <radialGradient id="glowRight" cx="0.88" cy="0.16" r="0.3">
      <stop offset="0" stop-color="#67e8f9" stop-opacity="0.34"/>
      <stop offset="1" stop-color="#67e8f9" stop-opacity="0"/>
    </radialGradient>
    <linearGradient id="courtStrokeWide" x1="0" y1="0" x2="0" y2="1">
      <stop offset="0" stop-color="#f8fafc" stop-opacity="0.82"/>
      <stop offset="1" stop-color="#cbd5e1" stop-opacity="0.38"/>
    </linearGradient>
    <linearGradient id="floorGlow" x1="0" y1="0" x2="1" y2="0">
      <stop offset="0" stop-color="#22d3ee" stop-opacity="0.05"/>
      <stop offset="0.5" stop-color="#22d3ee" stop-opacity="0.18"/>
      <stop offset="1" stop-color="#22d3ee" stop-opacity="0.05"/>
    </linearGradient>
  </defs>

  <rect width="1600" height="720" fill="url(#bgWide)"/>
  <rect width="1600" height="720" fill="url(#glowLeft)"/>
  <rect width="1600" height="720" fill="url(#glowRight)"/>

  <g opacity="0.16">
    <circle cx="120" cy="110" r="86" fill="#a5f3fc"/>
    <circle cx="1480" cy="94" r="92" fill="#a5f3fc"/>
    <circle cx="1505" cy="622" r="118" fill="#818cf8"/>
  </g>

  <g transform="translate(90 40)">
    <rect x="0" y="0" width="1420" height="560" rx="52" fill="none" stroke="url(#courtStrokeWide)" stroke-width="8"/>
    <line x1="710" y1="0" x2="710" y2="560" stroke="#e2e8f0" stroke-opacity="0.48" stroke-width="6"/>
    <line x1="0" y1="280" x2="1420" y2="280" stroke="#f0abfc" stroke-opacity="0.52" stroke-width="7"/>

    <rect x="204" y="108" width="1012" height="344" rx="28" fill="none" stroke="#cbd5e1" stroke-opacity="0.35" stroke-width="5"/>
    <line x1="476" y1="108" x2="476" y2="452" stroke="#cbd5e1" stroke-opacity="0.18" stroke-width="4"/>
    <line x1="944" y1="108" x2="944" y2="452" stroke="#cbd5e1" stroke-opacity="0.18" stroke-width="4"/>

    <g transform="translate(1264 122)">
      <circle cx="42" cy="12" r="9" fill="#f8fafc" fill-opacity="0.74"/>
      <path d="M42 20 Q90 70 70 132" stroke="#f8fafc" stroke-opacity="0.72" stroke-width="9" fill="none" stroke-linecap="round"/>
    </g>
  </g>

  <g opacity="0.26">
    <path d="M220 604 C470 522 1118 522 1378 608" stroke="url(#floorGlow)" stroke-width="26" fill="none" stroke-linecap="round"/>
    <path d="M262 646 C520 576 1084 576 1334 650" stroke="#60a5fa" stroke-opacity="0.18" stroke-width="16" fill="none" stroke-linecap="round"/>
  </g>

  <text x="168" y="126" fill="#e2e8f0" fill-opacity="0.72" font-size="44" font-family="Plus Jakarta Sans, Arial, sans-serif" font-weight="700">COURT PREVIEW</text>
</svg>
